<svg width="17" height="11" viewBox="0 0 17 11" fill="none" xmlns="http://www.w3.org/2000/svg">
<path d="M4.84375 4.71387H1.7627V7.2334H5.3418V8H0.825195V0.890625H5.29297V1.66211H1.7627V3.94727H4.84375V4.71387ZM7.22168 2.7168L7.25098 3.38086C7.65462 2.87305 8.18197 2.61914 8.83301 2.61914C9.94954 2.61914 10.5127 3.24902 10.5225 4.50879V8H9.61914V4.50391C9.61589 4.12305 9.52799 3.84147 9.35547 3.65918C9.1862 3.47689 8.9209 3.38574 8.55957 3.38574C8.2666 3.38574 8.00944 3.46387 7.78809 3.62012C7.56673 3.77637 7.39421 3.98145 7.27051 4.23535V8H6.36719V2.7168H7.22168ZM11.6699 5.31445C11.6699 4.49089 11.8604 3.83659 12.2412 3.35156C12.6221 2.86328 13.1266 2.61914 13.7549 2.61914C14.3994 2.61914 14.9023 2.84701 15.2637 3.30273L15.3076 2.7168H16.1328V7.87305C16.1328 8.55664 15.9294 9.09538 15.5225 9.48926C15.1188 9.88314 14.5752 10.0801 13.8916 10.0801C13.5107 10.0801 13.138 9.9987 12.7734 9.83594C12.4089 9.67318 12.1305 9.4502 11.9385 9.16699L12.4072 8.625C12.7946 9.10352 13.2682 9.34277 13.8281 9.34277C14.2676 9.34277 14.6094 9.21908 14.8535 8.97168C15.1009 8.72428 15.2246 8.37598 15.2246 7.92676V7.47266C14.8633 7.88932 14.3701 8.09766 13.7451 8.09766C13.1266 8.09766 12.6253 7.84863 12.2412 7.35059C11.8604 6.85254 11.6699 6.17383 11.6699 5.31445ZM12.5781 5.41699C12.5781 6.0127 12.7002 6.48145 12.9443 6.82324C13.1885 7.16178 13.5303 7.33105 13.9697 7.33105C14.5394 7.33105 14.9577 7.07227 15.2246 6.55469V4.14258C14.9479 3.63802 14.5329 3.38574 13.9795 3.38574C13.54 3.38574 13.1966 3.55664 12.9492 3.89844C12.7018 4.24023 12.5781 4.74642 12.5781 5.41699Z" fill="#F4E7DE"/>
</svg>
