<svg width="29" height="29" viewBox="0 0 29 29" fill="none" xmlns="http://www.w3.org/2000/svg">
<path d="M27.315 11.1312L24.7163 10.265L25.94 7.8175C26.0641 7.56131 26.1055 7.27295 26.0588 6.99218C26.012 6.71142 25.8792 6.4521 25.6788 6.25L22.75 3.32125C22.5468 3.11786 22.285 2.98328 22.0014 2.93642C21.7177 2.88956 21.4266 2.93278 21.1688 3.06L18.7213 4.28375L17.855 1.685C17.7635 1.41411 17.5899 1.17848 17.3582 1.0109C17.1265 0.843319 16.8484 0.75212 16.5625 0.749997H12.4375C12.1492 0.749253 11.868 0.839123 11.6336 1.0069C11.3992 1.17469 11.2235 1.41189 11.1313 1.685L10.265 4.28375L7.8175 3.06C7.56132 2.93594 7.27296 2.89445 6.99219 2.94125C6.71143 2.98804 6.4521 3.12081 6.25 3.32125L3.32125 6.25C3.11787 6.45317 2.98329 6.71499 2.93643 6.99862C2.88957 7.28226 2.93278 7.57345 3.06 7.83125L4.28375 10.2787L1.685 11.145C1.41412 11.2365 1.17849 11.4101 1.01091 11.6418C0.843326 11.8734 0.752128 12.1516 0.750005 12.4375V16.5625C0.74926 16.8508 0.839131 17.132 1.00691 17.3664C1.17469 17.6008 1.4119 17.7765 1.685 17.8687L4.28375 18.735L3.06 21.1825C2.93595 21.4387 2.89446 21.727 2.94125 22.0078C2.98805 22.2886 3.12082 22.5479 3.32125 22.75L6.25 25.6787C6.45318 25.8821 6.71499 26.0167 6.99863 26.0636C7.28227 26.1104 7.57346 26.0672 7.83125 25.94L10.2788 24.7162L11.145 27.315C11.2372 27.5881 11.413 27.8253 11.6474 27.9931C11.8818 28.1609 12.163 28.2507 12.4513 28.25H16.5763C16.8645 28.2507 17.1457 28.1609 17.3801 27.9931C17.6145 27.8253 17.7903 27.5881 17.8825 27.315L18.7488 24.7162L21.1963 25.94C21.4508 26.0609 21.7364 26.1007 22.0143 26.054C22.2922 26.0073 22.549 25.8763 22.75 25.6787L25.6788 22.75C25.8821 22.5468 26.0167 22.285 26.0636 22.0014C26.1104 21.7177 26.0672 21.4265 25.94 21.1687L24.7163 18.7212L27.315 17.855C27.5859 17.7635 27.8215 17.5899 27.9891 17.3582C28.1567 17.1265 28.2479 16.8484 28.25 16.5625V12.4375C28.2507 12.1492 28.1609 11.868 27.9931 11.6336C27.8253 11.3992 27.5881 11.2235 27.315 11.1312ZM25.5 15.5725L23.85 16.1225C23.4706 16.2456 23.1225 16.4497 22.8298 16.7208C22.5372 16.9918 22.307 17.3233 22.1553 17.6922C22.0035 18.0611 21.9338 18.4585 21.9511 18.8571C21.9683 19.2556 22.072 19.6456 22.255 20L23.0388 21.5675L21.5263 23.08L20 22.255C19.6474 22.0793 19.2612 21.9815 18.8674 21.968C18.4737 21.9546 18.0817 22.0259 17.7179 22.1772C17.3542 22.3284 17.0272 22.556 16.759 22.8446C16.4909 23.1333 16.2879 23.4761 16.1638 23.85L15.6138 25.5H13.4275L12.8775 23.85C12.7544 23.4706 12.5503 23.1225 12.2792 22.8298C12.0082 22.5372 11.6767 22.307 11.3078 22.1553C10.9389 22.0035 10.5414 21.9338 10.1429 21.9511C9.74443 21.9683 9.35443 22.072 9 22.255L7.4325 23.0387L5.92 21.5262L6.745 20C6.92801 19.6456 7.03172 19.2556 7.04894 18.8571C7.06616 18.4585 6.99649 18.0611 6.84474 17.6922C6.693 17.3233 6.46282 16.9918 6.17018 16.7208C5.87753 16.4497 5.52943 16.2456 5.15 16.1225L3.5 15.5725V13.4275L5.15 12.8775C5.52943 12.7544 5.87753 12.5503 6.17018 12.2792C6.46282 12.0082 6.693 11.6767 6.84474 11.3078C6.99649 10.9389 7.06616 10.5414 7.04894 10.1429C7.03172 9.74442 6.92801 9.35442 6.745 9L5.96125 7.47375L7.47375 5.96125L9 6.745C9.35443 6.928 9.74443 7.03171 10.1429 7.04893C10.5414 7.06616 10.9389 6.99648 11.3078 6.84474C11.6767 6.69299 12.0082 6.46282 12.2792 6.17017C12.5503 5.87753 12.7544 5.52942 12.8775 5.15L13.4275 3.5H15.5725L16.1225 5.15C16.2456 5.52942 16.4497 5.87753 16.7208 6.17017C16.9918 6.46282 17.3233 6.69299 17.6922 6.84474C18.0611 6.99648 18.4586 7.06616 18.8571 7.04893C19.2556 7.03171 19.6456 6.928 20 6.745L21.5675 5.96125L23.08 7.47375L22.255 9C22.0793 9.35261 21.9815 9.73885 21.968 10.1326C21.9546 10.5263 22.0259 10.9183 22.1772 11.2821C22.3284 11.6458 22.556 11.9728 22.8447 12.241C23.1333 12.5091 23.4761 12.7121 23.85 12.8362L25.5 13.3862V15.5725ZM14.5 9C13.4122 9 12.3488 9.32257 11.4444 9.92691C10.5399 10.5313 9.83495 11.3902 9.41867 12.3952C9.00238 13.4002 8.89347 14.5061 9.10568 15.573C9.3179 16.6399 9.84173 17.6199 10.6109 18.3891C11.3801 19.1583 12.3601 19.6821 13.427 19.8943C14.4939 20.1065 15.5998 19.9976 16.6048 19.5813C17.6098 19.1651 18.4687 18.4601 19.0731 17.5556C19.6774 16.6512 20 15.5878 20 14.5C20 13.0413 19.4205 11.6424 18.3891 10.6109C17.3576 9.57946 15.9587 9 14.5 9ZM14.5 17.25C13.9561 17.25 13.4244 17.0887 12.9722 16.7865C12.5199 16.4844 12.1675 16.0549 11.9593 15.5524C11.7512 15.0499 11.6967 14.4969 11.8028 13.9635C11.909 13.43 12.1709 12.94 12.5555 12.5555C12.9401 12.1709 13.4301 11.9089 13.9635 11.8028C14.497 11.6967 15.0499 11.7512 15.5524 11.9593C16.0549 12.1675 16.4844 12.5199 16.7865 12.9722C17.0887 13.4244 17.25 13.9561 17.25 14.5C17.25 15.2293 16.9603 15.9288 16.4445 16.4445C15.9288 16.9603 15.2293 17.25 14.5 17.25Z" fill="#FE7770"/>
</svg>
