<svg width="26" height="26" viewBox="0 0 26 26" fill="none" xmlns="http://www.w3.org/2000/svg">
<path d="M4.03548 20.5H9.29661C9.45991 20.501 9.62179 20.4694 9.77297 20.4072C9.92415 20.345 10.0617 20.2534 10.1776 20.1375L18.7642 11.475L22.2881 8C22.4044 7.8838 22.4967 7.74554 22.5597 7.59322C22.6227 7.4409 22.6551 7.27751 22.6551 7.1125C22.6551 6.94748 22.6227 6.7841 22.5597 6.63178C22.4967 6.47945 22.4044 6.3412 22.2881 6.225L17.027 0.8625C16.9116 0.745339 16.7744 0.652347 16.6232 0.588886C16.472 0.525425 16.3098 0.492752 16.146 0.492752C15.9822 0.492752 15.82 0.525425 15.6688 0.588886C15.5176 0.652347 15.3804 0.745339 15.265 0.8625L11.7659 4.4L3.15449 13.0625C3.03949 13.1793 2.94851 13.3178 2.88676 13.4701C2.82501 13.6224 2.79371 13.7855 2.79465 13.95V19.25C2.79465 19.5815 2.92538 19.8995 3.15808 20.1339C3.39078 20.3683 3.70639 20.5 4.03548 20.5ZM16.146 3.5125L19.6575 7.05L17.8956 8.825L14.384 5.2875L16.146 3.5125ZM5.27631 14.4625L12.6344 7.05L16.146 10.5875L8.78787 18H5.27631V14.4625ZM23.8888 23H1.55382C1.22473 23 0.90912 23.1317 0.676419 23.3661C0.443718 23.6005 0.312988 23.9185 0.312988 24.25C0.312988 24.5815 0.443718 24.8995 0.676419 25.1339C0.90912 25.3683 1.22473 25.5 1.55382 25.5H23.8888C24.2179 25.5 24.5335 25.3683 24.7662 25.1339C24.9989 24.8995 25.1296 24.5815 25.1296 24.25C25.1296 23.9185 24.9989 23.6005 24.7662 23.3661C24.5335 23.1317 24.2179 23 23.8888 23Z" fill="white"/>
</svg>
