<svg width="20" height="22" viewBox="0 0 20 22" fill="none" xmlns="http://www.w3.org/2000/svg">
<path d="M7.85712 17.4286C8.14128 17.4286 8.4138 17.3157 8.61473 17.1148C8.81566 16.9138 8.92854 16.6413 8.92854 16.3571V9.92857C8.92854 9.64441 8.81566 9.37189 8.61473 9.17096C8.4138 8.97003 8.14128 8.85714 7.85712 8.85714C7.57296 8.85714 7.30043 8.97003 7.0995 9.17096C6.89857 9.37189 6.78569 9.64441 6.78569 9.92857V16.3571C6.78569 16.6413 6.89857 16.9138 7.0995 17.1148C7.30043 17.3157 7.57296 17.4286 7.85712 17.4286ZM18.5714 4.57143H14.2857V3.5C14.2857 2.64752 13.947 1.82995 13.3442 1.22716C12.7415 0.62436 11.9239 0.285713 11.0714 0.285713H8.92854C8.07606 0.285713 7.2585 0.62436 6.6557 1.22716C6.05291 1.82995 5.71426 2.64752 5.71426 3.5V4.57143H1.42855C1.14438 4.57143 0.871863 4.68431 0.670931 4.88524C0.469999 5.08617 0.357117 5.3587 0.357117 5.64286C0.357117 5.92702 0.469999 6.19954 0.670931 6.40047C0.871863 6.6014 1.14438 6.71428 1.42855 6.71428H2.49997V18.5C2.49997 19.3525 2.83862 20.17 3.44142 20.7728C4.04421 21.3756 4.86178 21.7143 5.71426 21.7143H14.2857C15.1382 21.7143 15.9557 21.3756 16.5585 20.7728C17.1613 20.17 17.5 19.3525 17.5 18.5V6.71428H18.5714C18.8556 6.71428 19.1281 6.6014 19.329 6.40047C19.5299 6.19954 19.6428 5.92702 19.6428 5.64286C19.6428 5.3587 19.5299 5.08617 19.329 4.88524C19.1281 4.68431 18.8556 4.57143 18.5714 4.57143ZM7.85712 3.5C7.85712 3.21584 7.97 2.94332 8.17093 2.74238C8.37186 2.54145 8.64438 2.42857 8.92854 2.42857H11.0714C11.3556 2.42857 11.6281 2.54145 11.829 2.74238C12.0299 2.94332 12.1428 3.21584 12.1428 3.5V4.57143H7.85712V3.5ZM15.3571 18.5C15.3571 18.7842 15.2442 19.0567 15.0433 19.2576C14.8424 19.4585 14.5698 19.5714 14.2857 19.5714H5.71426C5.4301 19.5714 5.15758 19.4585 4.95665 19.2576C4.75571 19.0567 4.64283 18.7842 4.64283 18.5V6.71428H15.3571V18.5ZM12.1428 17.4286C12.427 17.4286 12.6995 17.3157 12.9004 17.1148C13.1014 16.9138 13.2143 16.6413 13.2143 16.3571V9.92857C13.2143 9.64441 13.1014 9.37189 12.9004 9.17096C12.6995 8.97003 12.427 8.85714 12.1428 8.85714C11.8587 8.85714 11.5861 8.97003 11.3852 9.17096C11.1843 9.37189 11.0714 9.64441 11.0714 9.92857V16.3571C11.0714 16.6413 11.1843 16.9138 11.3852 17.1148C11.5861 17.3157 11.8587 17.4286 12.1428 17.4286Z" fill="white"/>
</svg>
