<svg width="20" height="22" viewBox="0 0 20 22" fill="none" xmlns="http://www.w3.org/2000/svg">
<path d="M8.20292 17.4286C8.485 17.4286 8.75552 17.3157 8.95498 17.1148C9.15444 16.9138 9.26649 16.6413 9.26649 16.3571V9.92857C9.26649 9.64441 9.15444 9.37189 8.95498 9.17095C8.75552 8.97002 8.485 8.85714 8.20292 8.85714C7.92085 8.85714 7.65032 8.97002 7.45086 9.17095C7.25141 9.37189 7.13935 9.64441 7.13935 9.92857V16.3571C7.13935 16.6413 7.25141 16.9138 7.45086 17.1148C7.65032 17.3157 7.92085 17.4286 8.20292 17.4286ZM18.8386 4.57142H14.5843V3.5C14.5843 2.64751 14.2482 1.82995 13.6498 1.22715C13.0514 0.624357 12.2399 0.285709 11.3936 0.285709H9.26649C8.42026 0.285709 7.60869 0.624357 7.01032 1.22715C6.41194 1.82995 6.07578 2.64751 6.07578 3.5V4.57142H1.8215C1.53943 4.57142 1.2689 4.68431 1.06945 4.88524C0.869989 5.08617 0.757935 5.35869 0.757935 5.64285C0.757935 5.92701 0.869989 6.19953 1.06945 6.40047C1.2689 6.6014 1.53943 6.71428 1.8215 6.71428H2.88507V18.5C2.88507 19.3525 3.22124 20.17 3.81961 20.7728C4.41798 21.3756 5.22955 21.7143 6.07578 21.7143H14.5843C15.4306 21.7143 16.2421 21.3756 16.8405 20.7728C17.4389 20.17 17.775 19.3525 17.775 18.5V6.71428H18.8386C19.1207 6.71428 19.3912 6.6014 19.5907 6.40047C19.7901 6.19953 19.9022 5.92701 19.9022 5.64285C19.9022 5.35869 19.7901 5.08617 19.5907 4.88524C19.3912 4.68431 19.1207 4.57142 18.8386 4.57142ZM8.20292 3.5C8.20292 3.21583 8.31498 2.94331 8.51443 2.74238C8.71389 2.54145 8.98442 2.42857 9.26649 2.42857H11.3936C11.6757 2.42857 11.9462 2.54145 12.1457 2.74238C12.3451 2.94331 12.4572 3.21583 12.4572 3.5V4.57142H8.20292V3.5ZM15.6479 18.5C15.6479 18.7842 15.5359 19.0567 15.3364 19.2576C15.1369 19.4585 14.8664 19.5714 14.5843 19.5714H6.07578C5.79371 19.5714 5.52318 19.4585 5.32373 19.2576C5.12427 19.0567 5.01221 18.7842 5.01221 18.5V6.71428H15.6479V18.5ZM12.4572 17.4286C12.7393 17.4286 13.0098 17.3157 13.2093 17.1148C13.4087 16.9138 13.5208 16.6413 13.5208 16.3571V9.92857C13.5208 9.64441 13.4087 9.37189 13.2093 9.17095C13.0098 8.97002 12.7393 8.85714 12.4572 8.85714C12.1751 8.85714 11.9046 8.97002 11.7051 9.17095C11.5057 9.37189 11.3936 9.64441 11.3936 9.92857V16.3571C11.3936 16.6413 11.5057 16.9138 11.7051 17.1148C11.9046 17.3157 12.1751 17.4286 12.4572 17.4286Z" fill="#FE7770"/>
</svg>
