<svg width="26" height="26" viewBox="0 0 26 26" fill="none" xmlns="http://www.w3.org/2000/svg">
<path d="M4.25 20.5H9.55C9.71451 20.501 9.87759 20.4694 10.0299 20.4072C10.1822 20.345 10.3207 20.2534 10.4375 20.1375L19.0875 11.475L22.6375 8C22.7547 7.8838 22.8477 7.74554 22.9111 7.59322C22.9746 7.4409 23.0072 7.27751 23.0072 7.1125C23.0072 6.94748 22.9746 6.7841 22.9111 6.63178C22.8477 6.47945 22.7547 6.3412 22.6375 6.225L17.3375 0.8625C17.2213 0.745339 17.083 0.652347 16.9307 0.588886C16.7784 0.525425 16.615 0.492752 16.45 0.492752C16.285 0.492752 16.1216 0.525425 15.9693 0.588886C15.817 0.652347 15.6787 0.745339 15.5625 0.8625L12.0375 4.4L3.3625 13.0625C3.24665 13.1793 3.15499 13.3178 3.09279 13.4701C3.03058 13.6224 2.99905 13.7855 3 13.95V19.25C3 19.5815 3.1317 19.8995 3.36612 20.1339C3.60054 20.3683 3.91848 20.5 4.25 20.5ZM16.45 3.5125L19.9875 7.05L18.2125 8.825L14.675 5.2875L16.45 3.5125ZM5.5 14.4625L12.9125 7.05L16.45 10.5875L9.0375 18H5.5V14.4625ZM24.25 23H1.75C1.41848 23 1.10054 23.1317 0.866116 23.3661C0.631696 23.6005 0.5 23.9185 0.5 24.25C0.5 24.5815 0.631696 24.8995 0.866116 25.1339C1.10054 25.3683 1.41848 25.5 1.75 25.5H24.25C24.5815 25.5 24.8995 25.3683 25.1339 25.1339C25.3683 24.8995 25.5 24.5815 25.5 24.25C25.5 23.9185 25.3683 23.6005 25.1339 23.3661C24.8995 23.1317 24.5815 23 24.25 23Z" fill="#FE7770"/>
</svg>
