<svg width="10" height="14" viewBox="0 0 10 14" fill="none" xmlns="http://www.w3.org/2000/svg">
<path d="M7.82812 0.00976276C8.09179 0.00981903 8.34952 0.088048 8.56873 0.23456C8.78795 0.381073 8.9588 0.589291 9.05969 0.832891C9.16059 1.07649 9.18699 1.34453 9.13557 1.60314C9.08414 1.86174 8.9572 2.09929 8.77079 2.28576L4.05734 7L8.77083 11.7142C9.02085 11.9642 9.16131 12.3033 9.16132 12.6569C9.16132 13.0105 9.02086 13.3496 8.77084 13.5996C8.52081 13.8496 8.18171 13.9901 7.82813 13.9901C7.47454 13.9901 7.13544 13.8496 6.88542 13.5996L1.22918 7.94267C1.10533 7.8189 1.00709 7.67193 0.940068 7.51018C0.873042 7.34843 0.838544 7.17505 0.838544 6.99996C0.838544 6.82487 0.873042 6.6515 0.940068 6.48975C1.00709 6.32799 1.10533 6.18103 1.22918 6.05726L6.88542 0.40035C7.00907 0.276349 7.15601 0.178007 7.31779 0.110977C7.47957 0.0439463 7.653 0.00955009 7.82812 0.00976276Z" fill="#FE7770"/>
</svg>
