<svg width="10" height="14" viewBox="0 0 10 14" fill="none" xmlns="http://www.w3.org/2000/svg">
<path d="M2.17194 13.9902C1.90827 13.9902 1.65054 13.912 1.43133 13.7654C1.21211 13.6189 1.04126 13.4107 0.940367 13.1671C0.839474 12.9235 0.813071 12.6555 0.864494 12.3969C0.915918 12.1383 1.04286 11.9007 1.22927 11.7142L5.94273 7L1.22923 2.28581C0.979208 2.03579 0.838746 1.69669 0.838745 1.3431C0.838744 0.989516 0.979204 0.650413 1.22923 0.400389C1.47925 0.150366 1.81835 0.0099042 2.17193 0.00990295C2.52552 0.0099017 2.86462 0.150362 3.11465 0.400383L8.77089 6.05733C8.89473 6.1811 8.99297 6.32807 9.05999 6.48982C9.12702 6.65157 9.16152 6.82495 9.16152 7.00004C9.16152 7.17513 9.12702 7.3485 9.05999 7.51025C8.99297 7.67201 8.89473 7.81897 8.77089 7.94274L3.11465 13.5997C2.99099 13.7237 2.84405 13.822 2.68227 13.889C2.52049 13.9561 2.34706 13.9904 2.17194 13.9902Z" fill="#FE7770"/>
</svg>
